<?xml version="1.0" encoding="utf-8"?>
<!-- Generator: Adobe Illustrator 23.0.3, SVG Export Plug-In . SVG Version: 6.00 Build 0)  -->
<svg version="1.1" id="Layer_1" xmlns="http://www.w3.org/2000/svg" xmlns:xlink="http://www.w3.org/1999/xlink" x="0px" y="0px"
	 viewBox="0 0 42.9 15.1" style="enable-background:new 0 0 42.9 15.1;" xml:space="preserve">
<style type="text/css">
	.st0{enable-background:new    ;}
</style>
<title>Asset 1</title>
<g class="st0">
	<path d="M6.2,13.1l-1.8,1.4c-0.5,0.4-1.1,0.6-1.7,0.6c-1.5,0-2.7-1.2-2.7-2.7v-0.7v-9V0h3.7v2.6v9v1.5H6.2z"/>
	<path d="M10.4,15.1c-1.5,0-2.7-1.2-2.7-2.7V3.1h3.7v10l2.6,0l-1.9,1.5C11.6,14.9,11,15.1,10.4,15.1z M14.6,3.1h3.7v12h-3.7V3.1z"/>
	<path d="M20.7,2.9L24.4,0v15.1h-3.7V2.9z M31.9,15.1h-4.4l-3.1-4.9l2.9-2.4L31.9,15.1z M31.6,3.1l-4.3,3.6V3.1H31.6z"/>
	<path d="M35.5,8.1c0.5,3.3,3.5,5.6,6.8,5.1c0,0,0.1,0,0.1,0c-0.9,1-2.1,1.6-3.5,1.8c-3.3,0.5-6.4-1.8-6.8-5.1
		c-0.5-3.3,1.8-6.3,5-6.8C35.8,4.4,35.2,6.2,35.5,8.1z M42.3,9.4c1.5-4-1.6-6.2-4.3-6.2c0,0,1.9,1.9,1.5,4.1l-2.8,2.2H42.3z"/>
</g>
</svg>
